<?xml version="1.0" encoding="utf-8"?>
<!-- Generator: Adobe Illustrator 28.1.0, SVG Export Plug-In . SVG Version: 6.00 Build 0)  -->
<svg version="1.1" id="Layer_1" xmlns="http://www.w3.org/2000/svg" xmlns:xlink="http://www.w3.org/1999/xlink" x="0px" y="0px"
	 viewBox="0 0 16 16" style="enable-background:new 0 0 16 16;" xml:space="preserve">
<g>
	<g>
		<path d="M5.7,7.28l0.05-1.08H5.72C5.24,6.7,4.57,7.09,3.85,7.09c-1.51,0-2.52-1.1-2.52-3.04c0-1.89,1.26-3.07,2.64-3.07
			c0.71,0,1.26,0.28,1.8,0.79H5.8l0.1-0.65h0.79V9.4H5.7V7.28z M5.7,5.39v-2.9C5.17,2,4.68,1.82,4.18,1.82
			c-1.01,0-1.82,0.89-1.82,2.22c0,1.39,0.65,2.22,1.71,2.22C4.64,6.25,5.18,5.97,5.7,5.39z"/>
		<path d="M8.77,4.05c0-1.95,1.48-3.07,3.25-3.07c0.95,0,1.64,0.38,2.12,0.85l-0.49,0.63c-0.48-0.41-0.98-0.66-1.59-0.66
			c-1.34,0-2.26,0.9-2.26,2.24c0,1.33,0.91,2.22,2.24,2.22c0.72,0,1.32-0.32,1.8-0.73l0.44,0.65c-0.65,0.57-1.45,0.91-2.31,0.91
			C10.13,7.09,8.77,5.98,8.77,4.05z"/>
	</g>
</g>
<g>
	<g>
		<path d="M3.79,13.35H1.61V12.6h2.18v-2.34h0.79v2.34h2.18v0.74H4.58v2.34H3.79V13.35z"/>
		<path d="M10.98,13.35H8.8V12.6h2.18v-2.34h0.79v2.34h2.18v0.74h-2.18v2.34h-0.79V13.35z"/>
	</g>
</g>
</svg>
